<svg version="1" xmlns="http://www.w3.org/2000/svg" width="933.333" height="933.333" viewBox="0 0 700.000000 700.000000"><path d="M330 .7C278.7 4.2 235.4 16 191 38.5 125.1 71.9 71.6 125.6 38 192 18.5 230.8 7 269.6 1.8 314.5c-1.6 13.8-1.6 57.7 0 71 4.3 36.1 12.7 68.8 25.4 99 4.5 10.8 10.4 23.3 11.5 24.5.2.2 55.9-55.1 123.8-123L286 262.5l26.8 26.8 26.7 26.7 100-100c55-55 100.4-100 101-100 .5 0 34 33 74.3 73.2 64.1 64 73.3 72.9 72.7 69.8-1.4-7.1-11.5-35.9-17-48.5-17.7-40.7-41.2-75.2-73.5-107.6C550.8 56.5 495.4 25.4 431.5 10 398.7 2 360.5-1.5 330 .7z"/></svg>