<?xml version="1.0" encoding="UTF-8" standalone="no"?>
<!-- Created with Inkscape (http://www.inkscape.org/) -->

<svg
   xmlns:dc="http://purl.org/dc/elements/1.1/"
   xmlns:cc="http://creativecommons.org/ns#"
   xmlns:rdf="http://www.w3.org/1999/02/22-rdf-syntax-ns#"
   xmlns:svg="http://www.w3.org/2000/svg"
   xmlns="http://www.w3.org/2000/svg"
   xmlns:sodipodi="http://sodipodi.sourceforge.net/DTD/sodipodi-0.dtd"
   xmlns:inkscape="http://www.inkscape.org/namespaces/inkscape"
   width="210mm"
   height="297mm"
   viewBox="0 0 210 297"
   version="1.1"
   id="svg8"
   inkscape:version="0.92.4 (5da689c313, 2019-01-14)"
   sodipodi:docname="FirstOfManyLogo.svg"
   inkscape:export-filename="C:\Users\Luke\Downloads\FirstOfManyLogo.png"
   inkscape:export-xdpi="199.46112"
   inkscape:export-ydpi="199.46112">
  <title
     id="title4530">the First of Many logo</title>
  <defs
     id="defs2" />
  <sodipodi:namedview
     id="base"
     pagecolor="#ffffff"
     bordercolor="#666666"
     borderopacity="1.0"
     inkscape:pageopacity="0.0"
     inkscape:pageshadow="2"
     inkscape:zoom="0.70710678"
     inkscape:cx="172.66072"
     inkscape:cy="648.18818"
     inkscape:document-units="mm"
     inkscape:current-layer="layer1"
     showgrid="false"
     inkscape:window-width="1920"
     inkscape:window-height="1017"
     inkscape:window-x="1272"
     inkscape:window-y="-8"
     inkscape:window-maximized="1" />
  <metadata
     id="metadata5">
    <rdf:RDF>
      <cc:Work
         rdf:about="">
        <dc:format>image/svg+xml</dc:format>
        <dc:type
           rdf:resource="http://purl.org/dc/dcmitype/StillImage" />
        <dc:title>the First of Many logo</dc:title>
      </cc:Work>
    </rdf:RDF>
  </metadata>
  <g
     inkscape:label="Layer 1"
     inkscape:groupmode="layer"
     id="layer1">
    <g
       style="font-style:normal;font-variant:normal;font-weight:normal;font-stretch:normal;font-size:10.58333302px;line-height:1.25;font-family:Impact;-inkscape-font-specification:Impact;letter-spacing:0px;word-spacing:0px;fill:#000000;fill-opacity:1;stroke:none;stroke-width:0.26458332"
       id="text4537" />
    <g
       style="font-style:normal;font-variant:normal;font-weight:normal;font-stretch:normal;font-size:10.58333302px;line-height:1.25;font-family:Impact;-inkscape-font-specification:Impact;letter-spacing:0px;word-spacing:0px;fill:#000000;fill-opacity:1;stroke:none;stroke-width:0.26458332"
       id="text4578" />
    <g
       id="g269">
      <path
         id="path5655"
         d="m 38.83154,250.90926 v -10.75542 h 4.276225 V 235.088 H 38.83154 v -5.0493 h 17.434594 v -5.3294 H 31.9069 v 22.06533 a 40.036972,40.036972 0 0 0 6.92464,4.13463 z"
         style="fill:#ffffea;fill-opacity:1;stroke:none;stroke-width:7;stroke-miterlimit:4;stroke-dasharray:none;stroke-opacity:1"
         inkscape:connector-curvature="0" />
      <path
         id="path5660"
         d="M 92.689234,230.03611 H 80.066749 v 16.39022 a 40.036972,40.036972 0 0 0 12.622485,-16.39022 z"
         style="fill:#fdd835;fill-opacity:1;stroke:none;stroke-width:7;stroke-miterlimit:4;stroke-dasharray:none;stroke-opacity:1"
         inkscape:connector-curvature="0" />
      <path
         id="path5658"
         d="m 94.482408,224.71292 -32.437813,-0.006 v 5.33249 h 10.888223 v 20.74964 a 40.036972,40.036972 0 0 0 7.133931,-4.36304 V 230.0358 h 12.622485 a 40.036972,40.036972 0 0 0 1.793174,-5.32319 z"
         style="fill:#fffff5;fill-opacity:1;stroke:none;stroke-width:7;stroke-miterlimit:4;stroke-dasharray:none;stroke-opacity:1"
         inkscape:connector-curvature="0" />
      <path
         id="path5497"
         d="m 77.760948,188.08622 -23.012032,23.01203 -6.353101,-6.3531 -28.241687,28.24169 A 40.036972,40.036972 0 0 0 31.9069,246.77463 V 224.7093 h 24.359234 v 5.3294 H 38.83154 v 5.0493 h 4.276225 v 5.06584 H 38.83154 v 10.75542 a 40.036972,40.036972 0 0 0 16.920414,3.80855 40.036972,40.036972 0 0 0 17.180864,-3.92844 V 230.03973 H 62.044595 v -5.33249 l 32.437813,0.006 a 40.036972,40.036972 0 0 0 1.306896,-10.03195 40.036972,40.036972 0 0 0 -1.261422,-9.82782 z"
         style="fill:#fdd835;fill-opacity:1;stroke:none;stroke-width:7;stroke-miterlimit:4;stroke-dasharray:none;stroke-opacity:1"
         inkscape:connector-curvature="0" />
      <path
         id="path5488"
         d="m 55.752191,174.64386 a 40.036972,40.036972 0 0 0 -40.036831,40.03735 40.036972,40.036972 0 0 0 4.439005,18.30587 l 28.241687,-28.2417 6.353101,6.3531 23.012032,-23.01203 16.766934,16.76693 A 40.036972,40.036972 0 0 0 55.752191,174.64386 Z"
         style="fill:#4fc2f7;fill-opacity:1;stroke:none;stroke-width:7;stroke-miterlimit:4;stroke-dasharray:none;stroke-opacity:1"
         inkscape:connector-curvature="0" />
      <path
         sodipodi:nodetypes="ccc"
         inkscape:connector-curvature="0"
         id="path5492"
         d="m 45.932532,207.20481 8.62852,8.6149 25.466146,-25.46615"
         style="fill:none;stroke:#ffffff;stroke-width:7;stroke-linecap:butt;stroke-linejoin:miter;stroke-miterlimit:4;stroke-dasharray:none;stroke-opacity:1" />
      <path
         d="m 49.721916,235.08408 v 16.25097 h -5.094502 v -16.25097 z"
         style="font-style:normal;font-variant:normal;font-weight:normal;font-stretch:normal;font-size:13.2330904px;line-height:1.25;font-family:Impact;-inkscape-font-specification:Impact;letter-spacing:0px;word-spacing:0px;fill:#fffffc;fill-opacity:1;stroke:none;stroke-width:0.18952964;stroke-miterlimit:4;stroke-dasharray:none;stroke-opacity:1"
         id="path4547-4-0-7-4-4-6"
         inkscape:connector-curvature="0"
         sodipodi:nodetypes="ccccc" />
      <path
         d="m 56.432944,235.08408 -0.195943,2.13088 q 1.077683,-2.29008 3.122833,-2.42478 v 5.71906 q -1.359351,0 -1.996164,0.3674 -0.636812,0.36738 -0.78377,1.02869 -0.146961,0.64906 -0.146961,3.01261 v 6.41711 h -4.947546 v -16.25097 z"
         style="font-style:normal;font-variant:normal;font-weight:normal;font-stretch:normal;font-size:13.2330904px;line-height:1.25;font-family:Impact;-inkscape-font-specification:Impact;letter-spacing:0px;word-spacing:0px;fill:#fffffc;fill-opacity:1;stroke:none;stroke-width:0.18952964;stroke-miterlimit:4;stroke-dasharray:none;stroke-opacity:1"
         id="path4549-3-3-7-6-7-7"
         inkscape:connector-curvature="0" />
      <g
         id="text4545-4-3-5-0-9-1"
         style="font-style:normal;font-variant:normal;font-weight:normal;font-stretch:normal;font-size:24.78525162px;line-height:1.25;font-family:'AR DARLING';-inkscape-font-specification:'AR DARLING';letter-spacing:0px;word-spacing:0px;fill:#fffffc;fill-opacity:1;stroke:none;stroke-width:0.18952966;stroke-miterlimit:4;stroke-dasharray:none;stroke-opacity:1"
         transform="scale(0.99530249,1.0047197)"
         aria-label="s">
        <path
           id="path188"
           style="font-style:normal;font-variant:normal;font-weight:normal;font-stretch:normal;font-family:Impact;-inkscape-font-specification:Impact;fill:#fffffc;fill-opacity:1;stroke:none;stroke-width:0.18952966;stroke-miterlimit:4;stroke-dasharray:none;stroke-opacity:1"
           d="m 71.14694,239.09131 h -4.332578 v -0.87135 q 0,-1.1134 -0.133124,-1.40385 -0.121022,-0.30256 -0.629313,-0.30256 -0.411474,0 -0.617211,0.27835 -0.205737,0.26625 -0.205737,0.81085 0,0.73823 0.09682,1.08919 0.108919,0.33886 0.61721,0.75034 0.520394,0.41147 2.117881,1.19811 2.129982,1.04079 2.795602,1.96055 0.665619,0.91977 0.665619,2.67458 0,1.96056 -0.508291,2.96504 -0.508291,0.99238 -1.706406,1.53697 -1.186013,0.5325 -2.868216,0.5325 -1.863734,0 -3.194973,-0.58091 -1.319137,-0.5809 -1.815326,-1.57328 -0.49619,-0.99238 -0.49619,-3.00134 v -0.77454 h 4.332579 v 1.01659 q 0,1.29493 0.157328,1.6822 0.16943,0.38727 0.653517,0.38727 0.520394,0 0.726131,-0.25415 0.205737,-0.26625 0.205737,-1.1013 0,-1.1497 -0.266248,-1.44015 -0.27835,-0.29046 -2.844011,-1.71851 -2.154187,-1.21022 -2.626172,-2.1905 -0.471984,-0.99237 -0.471984,-2.34782 0,-1.92424 0.508291,-2.83191 0.508291,-0.91976 1.718509,-1.41595 1.222319,-0.49619 2.831908,-0.49619 1.597487,0 2.710887,0.41147 1.125502,0.39938 1.718509,1.065 0.605108,0.66562 0.72613,1.23442 0.133124,0.5688 0.133124,1.77902 z" />
      </g>
    </g>
    <g
       id="g274">
      <path
         id="path5488-7"
         d="m 155.73216,174.64374 a 40.036972,40.036972 0 0 0 -40.03683,40.03735 40.036972,40.036972 0 0 0 4.43901,18.30587 l 28.24168,-28.2417 6.3531,6.3531 23.01203,-23.01203 16.76694,16.76693 a 40.036972,40.036972 0 0 0 -38.77593,-30.20952 z"
         style="fill:#4fc2f7;fill-opacity:1;stroke:none;stroke-width:7;stroke-miterlimit:4;stroke-dasharray:none;stroke-opacity:1"
         inkscape:connector-curvature="0" />
      <path
         id="path5497-8"
         d="m 194.50809,204.85326 -16.76694,-16.76693 -23.01203,23.01203 -6.3531,-6.3531 -28.24168,28.2417 a 40.036972,40.036972 0 0 0 35.59782,21.73097 40.036972,40.036972 0 0 0 40.03735,-40.03684 40.036972,40.036972 0 0 0 -1.26142,-9.82783 z"
         style="fill:#fdd835;fill-opacity:1;stroke:none;stroke-width:7;stroke-miterlimit:4;stroke-dasharray:none;stroke-opacity:1"
         inkscape:connector-curvature="0" />
      <path
         sodipodi:nodetypes="ccc"
         inkscape:connector-curvature="0"
         id="path5492-9"
         d="m 145.92139,207.19996 8.59896,8.59896 25.46615,-25.46615"
         style="fill:none;stroke:#ffffff;stroke-width:7;stroke-linecap:butt;stroke-linejoin:miter;stroke-miterlimit:4;stroke-dasharray:none;stroke-opacity:1" />
    </g>
    <g
       id="g257">
      <path
         id="path5874"
         d="m 105.00026,83.34447 c -38.540681,0 -69.784371,31.24647 -69.784371,69.79057 H 174.78411 c 0,-1.7e-4 0,-2.6e-4 0,-5.3e-4 H 77.564724 l 34.591686,-34.58962 6.36034,6.3376 23.01203,-23.01203 c 8.43775,8.43774 16.82494,16.92245 25.15505,25.46356 1.68147,1.72406 3.33172,3.47926 5.00848,5.20795 -8.78587,-28.49147 -35.31932,-49.197503 -66.69205,-49.1975 z"
         style="fill:#4fc2f7;fill-opacity:1;stroke:none;stroke-width:0.00097903;stroke-miterlimit:4;stroke-dasharray:none;stroke-opacity:1"
         inkscape:connector-curvature="0" />
      <path
         d="m 92.858385,135.60173 -3.161569,3.16641 H 77.754092 v 12.66606 l -4.244932,-0.001 v -12.66276 h -6.478581 v -3.17301 z"
         style="font-style:normal;font-variant:normal;font-weight:normal;font-stretch:normal;font-size:17.79476166px;line-height:1.25;font-family:Impact;-inkscape-font-specification:Impact;letter-spacing:0px;word-spacing:0px;fill:#ffffff;fill-opacity:1;stroke:none;stroke-width:0.11277154;stroke-miterlimit:4;stroke-dasharray:none;stroke-opacity:1"
         id="path4532-5"
         inkscape:connector-curvature="0"
         sodipodi:nodetypes="ccccccccc" />
      <path
         d="m 59.698587,141.77148 v 9.66945 h -3.031266 v -9.66945 z"
         style="font-style:normal;font-variant:normal;font-weight:normal;font-stretch:normal;font-size:13.2330904px;line-height:1.25;font-family:Impact;-inkscape-font-specification:Impact;letter-spacing:0px;word-spacing:0px;fill:#ffffff;fill-opacity:1;stroke:none;stroke-width:0.11277154;stroke-miterlimit:4;stroke-dasharray:none;stroke-opacity:1"
         id="path4547-4"
         inkscape:connector-curvature="0"
         sodipodi:nodetypes="ccccc" />
      <path
         d="m 63.691699,141.77148 -0.116588,1.26789 q 0.641229,-1.36262 1.858108,-1.44276 v 3.40288 q -0.808823,0 -1.187732,0.2186 -0.378908,0.2186 -0.466349,0.61208 -0.08744,0.3862 -0.08744,1.79253 v 3.81823 h -2.943826 v -9.66945 z"
         style="font-style:normal;font-variant:normal;font-weight:normal;font-stretch:normal;font-size:13.2330904px;line-height:1.25;font-family:Impact;-inkscape-font-specification:Impact;letter-spacing:0px;word-spacing:0px;fill:#ffffff;fill-opacity:1;stroke:none;stroke-width:0.11277154;stroke-miterlimit:4;stroke-dasharray:none;stroke-opacity:1"
         id="path4549-3"
         inkscape:connector-curvature="0" />
      <g
         id="text4545-4"
         style="font-style:normal;font-variant:normal;font-weight:normal;font-stretch:normal;font-size:14.74740791px;line-height:1.25;font-family:'AR DARLING';-inkscape-font-specification:'AR DARLING';letter-spacing:0px;word-spacing:0px;fill:#ffffff;fill-opacity:1;stroke:none;stroke-width:0.11277154;stroke-miterlimit:4;stroke-dasharray:none;stroke-opacity:1"
         transform="scale(0.99530246,1.0047197)"
         aria-label="s">
        <path
           id="path191"
           style="font-style:normal;font-variant:normal;font-weight:normal;font-stretch:normal;font-family:Impact;-inkscape-font-specification:Impact;fill:#ffffff;fill-opacity:1;stroke:none;stroke-width:0.11277154;stroke-miterlimit:4;stroke-dasharray:none;stroke-opacity:1"
           d="m 72.588762,144.14691 h -2.577916 v -0.51846 q 0,-0.66248 -0.07921,-0.83531 -0.07201,-0.18002 -0.374446,-0.18002 -0.24483,0 -0.367245,0.16562 -0.122415,0.15842 -0.122415,0.48246 0,0.43926 0.05761,0.64808 0.06481,0.20163 0.367245,0.44646 0.309638,0.24483 1.260155,0.71288 1.267355,0.61928 1.663404,1.16655 0.396048,0.54726 0.396048,1.59139 0,1.16654 -0.302437,1.76422 -0.302437,0.59047 -1.015324,0.91451 -0.705687,0.31684 -1.70661,0.31684 -1.108935,0 -1.901033,-0.34564 -0.784896,-0.34565 -1.080132,-0.93612 -0.295236,-0.59047 -0.295236,-1.78582 v -0.46085 h 2.577916 v 0.60487 q 0,0.77049 0.09361,1.00092 0.100813,0.23043 0.388848,0.23043 0.309638,0 0.432053,-0.15122 0.122415,-0.15842 0.122415,-0.65528 0,-0.68408 -0.158419,-0.8569 -0.165621,-0.17282 -1.692208,-1.02253 -1.281757,-0.72009 -1.562591,-1.30336 -0.280835,-0.59047 -0.280835,-1.39697 0,-1.14494 0.302437,-1.68501 0.302437,-0.54726 1.022526,-0.8425 0.727289,-0.29524 1.685006,-0.29524 0.950517,0 1.612998,0.24483 0.669682,0.23763 1.022525,0.63368 0.360044,0.39605 0.432053,0.73449 0.07921,0.33844 0.07921,1.05853 z" />
      </g>
      <path
         d="M 49.098606,135.59862 H 63.59245 v 3.17073 H 53.218609 v 3.00438 h 2.54442 v 3.01416 h -2.54442 v 6.65463 h -4.120003 z"
         style="font-style:normal;font-variant:normal;font-weight:normal;font-stretch:normal;font-size:17.77239418px;line-height:1.25;font-family:Impact;-inkscape-font-specification:Impact;letter-spacing:0px;word-spacing:0px;fill:#ffffff;fill-opacity:1;stroke:none;stroke-width:0.11277154;stroke-miterlimit:4;stroke-dasharray:none;stroke-opacity:1"
         id="path4573-3"
         inkscape:connector-curvature="0"
         sodipodi:nodetypes="ccccccccccc" />
      <g
         id="text4586-9"
         style="font-style:normal;font-variant:normal;font-weight:normal;font-stretch:normal;font-size:9.62953091px;line-height:1.25;font-family:'AR DARLING';-inkscape-font-specification:'AR DARLING';letter-spacing:0px;word-spacing:0px;fill:#ffffff;fill-opacity:1;stroke:none;stroke-width:0.11277154;stroke-miterlimit:4;stroke-dasharray:none;stroke-opacity:1"
         transform="scale(1.2394152,0.80683213)"
         aria-label="OF">
        <path
           id="path194"
           style="font-style:normal;font-variant:normal;font-weight:normal;font-stretch:normal;font-family:Impact;-inkscape-font-specification:Impact;fill:#ffffff;fill-opacity:1;stroke:none;stroke-width:0.11277154;stroke-miterlimit:4;stroke-dasharray:none;stroke-opacity:1"
           d="m 67.427119,164.37356 q 0,1.14727 -0.05642,1.62687 -0.05172,0.47489 -0.338538,0.86985 -0.282116,0.39496 -0.766413,0.60655 -0.484298,0.21158 -1.128461,0.21158 -0.611249,0 -1.100249,-0.19748 -0.484298,-0.20218 -0.780519,-0.60184 -0.296221,-0.39966 -0.352644,-0.86986 -0.05642,-0.47019 -0.05642,-1.64567 v -1.30243 q 0,-1.14727 0.05172,-1.62216 0.05642,-0.4796 0.338539,-0.87456 0.286817,-0.39496 0.771114,-0.60655 0.484298,-0.21158 1.128461,-0.21158 0.61125,0 1.095547,0.20218 0.489,0.19748 0.785221,0.59714 0.296221,0.39967 0.352644,0.86986 0.05642,0.47019 0.05642,1.64567 z m -1.979508,-2.50142 q 0,-0.53132 -0.06112,-0.67708 -0.05642,-0.15046 -0.239798,-0.15046 -0.155163,0 -0.239798,0.12225 -0.07993,0.11755 -0.07993,0.70529 v 3.55465 q 0,0.66297 0.05172,0.81814 0.05642,0.15516 0.253903,0.15516 0.202183,0 0.258606,-0.17867 0.05642,-0.17868 0.05642,-0.85105 z" />
        <path
           id="path196"
           style="font-style:normal;font-variant:normal;font-weight:normal;font-stretch:normal;font-family:Impact;-inkscape-font-specification:Impact;fill:#ffffff;fill-opacity:1;stroke:none;stroke-width:0.11277154;stroke-miterlimit:4;stroke-dasharray:none;stroke-opacity:1"
           d="m 68.170022,159.91614 h 3.352468 v 1.52342 h -1.37296 v 1.44349 h 1.222499 v 1.44819 H 70.14953 v 3.19731 h -1.979508 z" />
      </g>
      <g
         id="text4590-8"
         style="font-style:normal;font-variant:normal;font-weight:normal;font-stretch:normal;font-size:9.95794106px;line-height:1.25;font-family:'AR DARLING';-inkscape-font-specification:'AR DARLING';letter-spacing:0px;word-spacing:0px;fill:#ffffff;fill-opacity:1;stroke:none;stroke-width:0.11277154;stroke-miterlimit:4;stroke-dasharray:none;stroke-opacity:1"
         transform="scale(1.0814107,0.92471806)"
         aria-label="Man">
        <path
           id="path199"
           style="font-style:normal;font-variant:normal;font-weight:normal;font-stretch:condensed;font-size:16.74319649px;font-family:Impact;-inkscape-font-specification:'Impact, Condensed';font-variant-ligatures:normal;font-variant-caps:normal;font-variant-numeric:normal;font-feature-settings:normal;text-align:start;writing-mode:lr-tb;text-anchor:start;fill:#ffffff;fill-opacity:1;stroke:none;stroke-width:0.11277154;stroke-miterlimit:4;stroke-dasharray:none;stroke-opacity:1"
           d="m 68.458086,125.66729 v 13.23595 h -3.008543 v -8.9357 l -1.201782,8.9357 h -2.133776 l -1.267186,-8.73131 v 8.73131 h -3.008543 v -13.23595 h 4.455587 q 0.19621,1.19361 0.416945,2.81233 l 0.474173,3.36826 0.784837,-6.18059 z" />
        <path
           id="path201"
           style="font-style:normal;font-variant:normal;font-weight:normal;font-stretch:condensed;font-size:16.74319649px;font-family:Impact;-inkscape-font-specification:'Impact, Condensed';font-variant-ligatures:normal;font-variant-caps:normal;font-variant-numeric:normal;font-feature-settings:normal;text-align:start;writing-mode:lr-tb;text-anchor:start;fill:#ffffff;fill-opacity:1;stroke:none;stroke-width:0.11277154;stroke-miterlimit:4;stroke-dasharray:none;stroke-opacity:1"
           d="m 72.692938,132.25665 h -3.098473 v -0.72761 q 0,-1.25901 0.286139,-1.93756 0.294314,-0.68674 1.16908,-1.20996 0.874767,-0.52323 2.272758,-0.52323 1.675955,0 2.526196,0.59681 0.85024,0.58862 1.021923,1.45522 0.171683,0.85841 0.171683,3.54812 v 5.4448 h -3.212927 v -0.96469 q -0.30249,0.58045 -0.784838,0.87476 -0.474172,0.28614 -1.136379,0.28614 -0.866591,0 -1.594201,-0.48234 -0.719434,-0.49053 -0.719434,-2.13378 v -0.89112 q 0,-1.21813 0.384243,-1.6596 0.384244,-0.44147 1.904866,-1.0301 1.626902,-0.63768 1.741358,-0.85842 0.114455,-0.22073 0.114455,-0.89929 0,-0.85024 -0.130806,-1.10368 -0.122631,-0.26161 -0.416945,-0.26161 -0.335191,0 -0.416945,0.22074 -0.08175,0.21256 -0.08175,1.12002 z m 1.046449,1.48792 q -0.793012,0.58046 -0.923819,0.97287 -0.12263,0.39242 -0.12263,1.12821 0,0.84206 0.10628,1.08733 0.114455,0.24526 0.441471,0.24526 0.310664,0 0.400594,-0.18804 0.0981,-0.19621 0.0981,-1.01375 z" />
        <path
           id="path203"
           style="font-style:normal;font-variant:normal;font-weight:normal;font-stretch:condensed;font-size:16.74319649px;font-family:Impact;-inkscape-font-specification:'Impact, Condensed';font-variant-ligatures:normal;font-variant-caps:normal;font-variant-numeric:normal;font-feature-settings:normal;text-align:start;writing-mode:lr-tb;text-anchor:start;fill:#ffffff;fill-opacity:1;stroke:none;stroke-width:0.11277154;stroke-miterlimit:4;stroke-dasharray:none;stroke-opacity:1"
           d="m 81.538709,128.0545 -0.05723,0.9974 q 0.359718,-0.5968 0.874767,-0.89112 0.523225,-0.30249 1.201782,-0.30249 0.850241,0 1.389816,0.4006 0.539576,0.40059 0.694908,1.01375 0.155333,0.60497 0.155333,2.02749 v 7.60311 H 82.49523 v -7.51318 q 0,-1.12003 -0.07358,-1.36529 -0.07358,-0.24526 -0.408769,-0.24526 -0.351542,0 -0.441471,0.28614 -0.08993,0.27796 -0.08993,1.50427 v 7.33332 H 78.178624 V 128.0545 Z" />
      </g>
      <path
         sodipodi:nodetypes="cccccccccc"
         inkscape:connector-curvature="0"
         id="path4640-2"
         d="m 88.887322,135.01637 4.51951,-0.007 16.411348,-16.44431 h -4.38651 l -5.0103,4.94435 -2.853638,-4.94264 h -4.50316 l 4.36146,7.55427 0.13718,0.23761 z"
         style="fill:#ffffff;fill-opacity:1;stroke:none;stroke-width:0.11277154;stroke-linecap:butt;stroke-linejoin:miter;stroke-miterlimit:4;stroke-dasharray:none;stroke-opacity:1" />
      <path
         id="path5906"
         d="m 171.69231,132.54198 c -1.67676,-1.72869 -3.32701,-3.48389 -5.00848,-5.20795 -8.33011,-8.54111 -16.7173,-17.02581 -25.15505,-25.46356 l -23.01203,23.01203 -6.36034,-6.3376 -34.591686,34.58962 h 97.219386 c -5e-5,-7.1684 -1.08448,-14.08305 -3.0918,-20.59254 z"
         style="fill:#fdd835;fill-opacity:1;stroke:none;stroke-width:0.00097903;stroke-miterlimit:4;stroke-dasharray:none;stroke-opacity:1"
         inkscape:connector-curvature="0" />
      <path
         sodipodi:nodetypes="ccc"
         inkscape:connector-curvature="0"
         id="path5492-9-7"
         d="m 109.68892,121.0067 8.63286,8.61237 25.46615,-25.46614"
         style="fill:none;stroke:#ffffff;stroke-width:7;stroke-linecap:butt;stroke-linejoin:miter;stroke-miterlimit:4;stroke-dasharray:none;stroke-opacity:1" />
    </g>
    <g
       id="g238">
      <path
         id="rect994-7"
         d="M 0.3239608,0 V 66.96697 H 128.9528 l 34.59169,-34.58962 6.36033,6.3376 23.01203,-23.012032 16.75919,16.759182 V 0 Z"
         style="fill:#4fc2f7;fill-opacity:1;stroke-width:0.30374518"
         inkscape:connector-curvature="0" />
      <path
         d="m 144.24634,49.434329 -3.16157,3.16641 h -11.94273 v 12.666057 l -4.24493,-0.0011 V 52.602973 h -6.47858 V 49.42997 Z"
         style="font-style:normal;font-variant:normal;font-weight:normal;font-stretch:normal;font-size:17.79476166px;line-height:1.25;font-family:Impact;-inkscape-font-specification:Impact;letter-spacing:0px;word-spacing:0px;fill:#ffffff;fill-opacity:1;stroke:none;stroke-width:0.11277154;stroke-miterlimit:4;stroke-dasharray:none;stroke-opacity:1"
         id="path4532-5-4"
         inkscape:connector-curvature="0"
         sodipodi:nodetypes="ccccccccc" />
      <path
         d="m 111.08654,55.604078 v 9.669449 h -3.03127 v -9.669449 z"
         style="font-style:normal;font-variant:normal;font-weight:normal;font-stretch:normal;font-size:13.2330904px;line-height:1.25;font-family:Impact;-inkscape-font-specification:Impact;letter-spacing:0px;word-spacing:0px;fill:#ffffff;fill-opacity:1;stroke:none;stroke-width:0.11277154;stroke-miterlimit:4;stroke-dasharray:none;stroke-opacity:1"
         id="path4547-4-8"
         inkscape:connector-curvature="0"
         sodipodi:nodetypes="ccccc" />
      <path
         d="m 115.07965,55.604078 -0.11659,1.26789 q 0.64123,-1.362619 1.85811,-1.442765 v 3.402881 q -0.80882,0 -1.18773,0.218608 -0.37891,0.218596 -0.46635,0.612078 -0.0874,0.386198 -0.0874,1.792527 v 3.81823 h -2.94383 v -9.669449 z"
         style="font-style:normal;font-variant:normal;font-weight:normal;font-stretch:normal;font-size:13.2330904px;line-height:1.25;font-family:Impact;-inkscape-font-specification:Impact;letter-spacing:0px;word-spacing:0px;fill:#ffffff;fill-opacity:1;stroke:none;stroke-width:0.11277154;stroke-miterlimit:4;stroke-dasharray:none;stroke-opacity:1"
         id="path4549-3-5"
         inkscape:connector-curvature="0" />
      <g
         id="text4545-4-6"
         style="font-style:normal;font-variant:normal;font-weight:normal;font-stretch:normal;font-size:14.74740791px;line-height:1.25;font-family:'AR DARLING';-inkscape-font-specification:'AR DARLING';letter-spacing:0px;word-spacing:0px;fill:#ffffff;fill-opacity:1;stroke:none;stroke-width:0.11277154;stroke-miterlimit:4;stroke-dasharray:none;stroke-opacity:1"
         transform="scale(0.99530246,1.0047197)"
         aria-label="s">
        <path
           id="path218"
           style="font-style:normal;font-variant:normal;font-weight:normal;font-stretch:normal;font-family:Impact;-inkscape-font-specification:Impact;fill:#ffffff;fill-opacity:1;stroke:none;stroke-width:0.11277154;stroke-miterlimit:4;stroke-dasharray:none;stroke-opacity:1"
           d="m 124.21926,58.384276 h -2.57792 v -0.518464 q 0,-0.662481 -0.0792,-0.835302 -0.072,-0.180022 -0.37445,-0.180022 -0.24483,0 -0.36724,0.16562 -0.12242,0.15842 -0.12242,0.482459 0,0.439254 0.0576,0.64808 0.0648,0.201624 0.36725,0.446454 0.30963,0.24483 1.26015,0.712888 1.26736,0.619276 1.6634,1.166543 0.39605,0.547267 0.39605,1.591395 0,1.166543 -0.30243,1.764216 -0.30244,0.590473 -1.01533,0.914512 -0.70569,0.316839 -1.70661,0.316839 -1.10893,0 -1.90103,-0.345642 -0.7849,-0.345643 -1.08013,-0.936115 -0.29524,-0.590472 -0.29524,-1.785819 v -0.460856 h 2.57792 v 0.604874 q 0,0.770494 0.0936,1.000922 0.10081,0.230429 0.38885,0.230429 0.30963,0 0.43205,-0.151219 0.12241,-0.158419 0.12241,-0.65528 0,-0.684084 -0.15842,-0.856905 -0.16562,-0.172821 -1.6922,-1.022526 -1.28176,-0.720088 -1.5626,-1.303359 -0.28083,-0.590473 -0.28083,-1.396972 0,-1.14494 0.30244,-1.685006 0.30243,-0.547267 1.02252,-0.842503 0.72729,-0.295237 1.68501,-0.295237 0.95052,0 1.613,0.24483 0.66968,0.237629 1.02252,0.633678 0.36005,0.396049 0.43206,0.73449 0.0792,0.338442 0.0792,1.05853 z" />
      </g>
      <path
         d="m 100.48656,49.431214 h 14.49384 v 3.17073 h -10.37384 v 3.004381 h 2.54442 v 3.014157 h -2.54442 v 6.654638 h -4.12 z"
         style="font-style:normal;font-variant:normal;font-weight:normal;font-stretch:normal;font-size:17.77239418px;line-height:1.25;font-family:Impact;-inkscape-font-specification:Impact;letter-spacing:0px;word-spacing:0px;fill:#ffffff;fill-opacity:1;stroke:none;stroke-width:0.11277154;stroke-miterlimit:4;stroke-dasharray:none;stroke-opacity:1"
         id="path4573-3-2"
         inkscape:connector-curvature="0"
         sodipodi:nodetypes="ccccccccccc" />
      <g
         id="text4586-9-4"
         style="font-style:normal;font-variant:normal;font-weight:normal;font-stretch:normal;font-size:9.62953091px;line-height:1.25;font-family:'AR DARLING';-inkscape-font-specification:'AR DARLING';letter-spacing:0px;word-spacing:0px;fill:#ffffff;fill-opacity:1;stroke:none;stroke-width:0.11277154;stroke-miterlimit:4;stroke-dasharray:none;stroke-opacity:1"
         transform="scale(1.2394152,0.80683213)"
         aria-label="OF">
        <path
           id="path213"
           style="font-style:normal;font-variant:normal;font-weight:normal;font-stretch:normal;font-family:Impact;-inkscape-font-specification:Impact;fill:#ffffff;fill-opacity:1;stroke:none;stroke-width:0.11277154;stroke-miterlimit:4;stroke-dasharray:none;stroke-opacity:1"
           d="m 108.88857,57.576373 q 0,1.147269 -0.0564,1.626865 -0.0517,0.474893 -0.33853,0.869855 -0.28212,0.394961 -0.76642,0.606547 -0.48429,0.211587 -1.12846,0.211587 -0.61125,0 -1.10025,-0.197481 -0.48429,-0.202182 -0.78052,-0.601846 -0.29622,-0.399663 -0.35264,-0.869855 -0.0564,-0.470192 -0.0564,-1.645672 v -1.302431 q 0,-1.147269 0.0517,-1.622162 0.0564,-0.479596 0.33854,-0.874557 0.28681,-0.394962 0.77111,-0.606548 0.4843,-0.211586 1.12846,-0.211586 0.61125,0 1.09555,0.202182 0.489,0.197481 0.78522,0.597144 0.29622,0.399663 0.35264,0.869855 0.0564,0.470192 0.0564,1.645672 z m -1.97951,-2.501421 q 0,-0.531317 -0.0611,-0.677076 -0.0564,-0.150461 -0.23979,-0.150461 -0.15517,0 -0.2398,0.122249 -0.0799,0.117548 -0.0799,0.705288 v 3.554651 q 0,0.662971 0.0517,0.818134 0.0564,0.155164 0.2539,0.155164 0.20218,0 0.25861,-0.178673 0.0564,-0.178673 0.0564,-0.851048 z" />
        <path
           id="path215"
           style="font-style:normal;font-variant:normal;font-weight:normal;font-stretch:normal;font-family:Impact;-inkscape-font-specification:Impact;fill:#ffffff;fill-opacity:1;stroke:none;stroke-width:0.11277154;stroke-miterlimit:4;stroke-dasharray:none;stroke-opacity:1"
           d="m 109.63147,53.118954 h 3.35247 v 1.523422 h -1.37296 v 1.443489 h 1.2225 v 1.448191 h -1.2225 v 3.197305 h -1.97951 z" />
      </g>
      <g
         id="text4590-8-4"
         style="font-style:normal;font-variant:normal;font-weight:normal;font-stretch:normal;font-size:9.95794106px;line-height:1.25;font-family:'AR DARLING';-inkscape-font-specification:'AR DARLING';letter-spacing:0px;word-spacing:0px;fill:#ffffff;fill-opacity:1;stroke:none;stroke-width:0.11277154;stroke-miterlimit:4;stroke-dasharray:none;stroke-opacity:1"
         transform="scale(1.0814107,0.92471806)"
         aria-label="Man">
        <path
           id="path206"
           style="font-style:normal;font-variant:normal;font-weight:normal;font-stretch:condensed;font-size:16.74319649px;font-family:Impact;-inkscape-font-specification:'Impact, Condensed';font-variant-ligatures:normal;font-variant-caps:normal;font-variant-numeric:normal;font-feature-settings:normal;text-align:start;writing-mode:lr-tb;text-anchor:start;fill:#ffffff;fill-opacity:1;stroke:none;stroke-width:0.11277154;stroke-miterlimit:4;stroke-dasharray:none;stroke-opacity:1"
           d="m 115.97745,32.484943 v 13.235955 h -3.00854 v -8.9357 l -1.20178,8.9357 h -2.13378 l -1.26718,-8.731316 v 8.731316 h -3.00855 V 32.484943 h 4.45559 q 0.19621,1.193607 0.41695,2.812334 l 0.47417,3.36826 0.78484,-6.180594 z" />
        <path
           id="path208"
           style="font-style:normal;font-variant:normal;font-weight:normal;font-stretch:condensed;font-size:16.74319649px;font-family:Impact;-inkscape-font-specification:'Impact, Condensed';font-variant-ligatures:normal;font-variant-caps:normal;font-variant-numeric:normal;font-feature-settings:normal;text-align:start;writing-mode:lr-tb;text-anchor:start;fill:#ffffff;fill-opacity:1;stroke:none;stroke-width:0.11277154;stroke-miterlimit:4;stroke-dasharray:none;stroke-opacity:1"
           d="m 120.2123,39.074306 h -3.09847 v -0.727609 q 0,-1.25901 0.28614,-1.937567 0.29431,-0.686733 1.16908,-1.209958 0.87477,-0.523225 2.27276,-0.523225 1.67595,0 2.52619,0.596804 0.85025,0.588628 1.02193,1.455219 0.17168,0.858416 0.17168,3.548119 v 5.444809 h -3.21293 v -0.964696 q -0.30249,0.580452 -0.78483,0.874766 -0.47418,0.286139 -1.13638,0.286139 -0.86659,0 -1.5942,-0.482348 -0.71944,-0.490523 -0.71944,-2.133776 v -0.891118 q 0,-1.218133 0.38425,-1.659604 0.38424,-0.441471 1.90486,-1.030099 1.6269,-0.63768 1.74136,-0.858416 0.11445,-0.220735 0.11445,-0.899292 0,-0.850241 -0.1308,-1.103678 -0.12263,-0.261612 -0.41695,-0.261612 -0.33519,0 -0.41694,0.220735 -0.0818,0.21256 -0.0818,1.120028 z m 1.04645,1.487921 q -0.79301,0.580453 -0.92381,0.972872 -0.12264,0.392418 -0.12264,1.128203 0,0.842065 0.10628,1.087327 0.11446,0.245262 0.44148,0.245262 0.31066,0 0.40059,-0.188034 0.0981,-0.19621 0.0981,-1.013749 z" />
        <path
           id="path210"
           style="font-style:normal;font-variant:normal;font-weight:normal;font-stretch:condensed;font-size:16.74319649px;font-family:Impact;-inkscape-font-specification:'Impact, Condensed';font-variant-ligatures:normal;font-variant-caps:normal;font-variant-numeric:normal;font-feature-settings:normal;text-align:start;writing-mode:lr-tb;text-anchor:start;fill:#ffffff;fill-opacity:1;stroke:none;stroke-width:0.11277154;stroke-miterlimit:4;stroke-dasharray:none;stroke-opacity:1"
           d="m 129.05808,34.872157 -0.0572,0.997397 q 0.35972,-0.596803 0.87477,-0.891117 0.52322,-0.30249 1.20178,-0.30249 0.85024,0 1.38981,0.400594 0.53958,0.400594 0.69491,1.013749 0.15533,0.604978 0.15533,2.027496 v 7.603112 h -3.30285 v -7.513183 q 0,-1.120028 -0.0736,-1.36529 -0.0736,-0.245261 -0.40877,-0.245261 -0.35154,0 -0.44147,0.286138 -0.0899,0.277963 -0.0899,1.504272 v 7.333324 h -3.30286 V 34.872157 Z" />
      </g>
      <path
         sodipodi:nodetypes="cccccccccc"
         inkscape:connector-curvature="0"
         id="path4640-2-0"
         d="m 140.27527,48.848971 4.51951,-0.007 16.41135,-16.444315 h -4.38651 l -5.0103,4.944356 -2.85364,-4.942641 h -4.50316 l 4.36146,7.55427 0.13718,0.23761 z"
         style="fill:#ffffff;fill-opacity:1;stroke:none;stroke-width:0.11277154;stroke-linecap:butt;stroke-linejoin:miter;stroke-miterlimit:4;stroke-dasharray:none;stroke-opacity:1" />
      <path
         inkscape:connector-curvature="0"
         id="path5728-5"
         d="M 209.67604,32.462101 192.91685,15.702917 169.90482,38.714948 163.54449,32.377352 128.9528,66.966971 h 80.72324 z"
         style="fill:#fdd835;fill-opacity:1;stroke-width:0.30374515" />
      <path
         sodipodi:nodetypes="ccc"
         inkscape:connector-curvature="0"
         id="path5492-9-7-3"
         d="m 161.07686,34.839302 8.63287,8.612369 25.46615,-25.466149"
         style="fill:none;stroke:#ffffff;stroke-width:7;stroke-linecap:butt;stroke-linejoin:miter;stroke-miterlimit:4;stroke-dasharray:none;stroke-opacity:1" />
    </g>
  </g>
</svg>
