<?xml version="1.0" encoding="UTF-8" standalone="no"?>
<!-- Created with Inkscape (http://www.inkscape.org/) -->

<svg
   xmlns:dc="http://purl.org/dc/elements/1.1/"
   xmlns:cc="http://creativecommons.org/ns#"
   xmlns:rdf="http://www.w3.org/1999/02/22-rdf-syntax-ns#"
   xmlns:svg="http://www.w3.org/2000/svg"
   xmlns="http://www.w3.org/2000/svg"
   xmlns:sodipodi="http://sodipodi.sourceforge.net/DTD/sodipodi-0.dtd"
   xmlns:inkscape="http://www.inkscape.org/namespaces/inkscape"
   width="149.40366mm"
   height="74.70182mm"
   viewBox="0 0 149.40366 74.70182"
   version="1.1"
   id="svg105"
   inkscape:version="0.92.4 (5da689c313, 2019-01-14)"
   sodipodi:docname="logo_semi_circle_wide.svg">
  <defs
     id="defs99" />
  <sodipodi:namedview
     id="base"
     pagecolor="#ffffff"
     bordercolor="#666666"
     borderopacity="1.0"
     inkscape:pageopacity="0.0"
     inkscape:pageshadow="2"
     inkscape:zoom="0.98994949"
     inkscape:cx="100.14938"
     inkscape:cy="-2.1936479"
     inkscape:document-units="mm"
     inkscape:current-layer="layer1"
     showgrid="false"
     inkscape:window-width="1920"
     inkscape:window-height="1017"
     inkscape:window-x="1272"
     inkscape:window-y="-8"
     inkscape:window-maximized="1"
     fit-margin-top="0"
     fit-margin-left="0"
     fit-margin-right="0"
     fit-margin-bottom="0" />
  <metadata
     id="metadata102">
    <rdf:RDF>
      <cc:Work
         rdf:about="">
        <dc:format>image/svg+xml</dc:format>
        <dc:type
           rdf:resource="http://purl.org/dc/dcmitype/StillImage" />
        <dc:title></dc:title>
      </cc:Work>
    </rdf:RDF>
  </metadata>
  <g
     inkscape:label="Layer 1"
     inkscape:groupmode="layer"
     id="layer1"
     transform="translate(-28.703244,-91.639888)">
    <g
       id="g175">
      <path
         inkscape:connector-curvature="0"
         id="path177"
         d="m 28.703244,166.34171 c 2e-6,-41.25668 33.445152,-74.701824 74.701836,-74.701822 41.25668,10e-7 74.70182,33.445142 74.70182,74.701822"
         style="fill:#ffffff;fill-opacity:1;stroke:none;stroke-width:0.26745403" />
      <g
         id="g154">
        <path
           inkscape:connector-curvature="0"
           style="fill:#4fc2f7;fill-opacity:1;stroke:none;stroke-width:0.00097903;stroke-miterlimit:4;stroke-dasharray:none;stroke-opacity:1"
           d="m 103.56573,96.551144 c -38.540675,0 -69.784365,31.246466 -69.784365,69.790566 H 173.34959 c 0,-1.7e-4 0,-2.6e-4 0,-5.2e-4 H 76.1302 l 34.59169,-34.58962 6.36033,6.3376 23.01203,-23.01204 c 8.43775,8.43775 16.82495,16.92246 25.15506,25.46356 1.68146,1.72406 3.33172,3.47926 5.00848,5.20795 -8.78588,-28.49147 -35.31932,-49.197499 -66.69206,-49.197496 z"
           id="path5874" />
        <g
           id="g135">
          <g
             id="g118">
            <path
               sodipodi:nodetypes="ccccccccc"
               inkscape:connector-curvature="0"
               id="path4532-5"
               style="font-style:normal;font-variant:normal;font-weight:normal;font-stretch:normal;font-size:17.79476166px;line-height:1.25;font-family:Impact;-inkscape-font-specification:Impact;letter-spacing:0px;word-spacing:0px;fill:#ffffff;fill-opacity:1;stroke:none;stroke-width:0.11277154;stroke-miterlimit:4;stroke-dasharray:none;stroke-opacity:1"
               d="m 91.423861,148.80841 -3.161569,3.16641 H 76.319568 v 12.66605 l -4.244932,-0.001 V 151.9771 h -6.478581 v -3.173 z" />
            <path
               sodipodi:nodetypes="ccccc"
               inkscape:connector-curvature="0"
               id="path4547-4"
               style="font-style:normal;font-variant:normal;font-weight:normal;font-stretch:normal;font-size:13.2330904px;line-height:1.25;font-family:Impact;-inkscape-font-specification:Impact;letter-spacing:0px;word-spacing:0px;fill:#ffffff;fill-opacity:1;stroke:none;stroke-width:0.11277154;stroke-miterlimit:4;stroke-dasharray:none;stroke-opacity:1"
               d="m 58.264063,154.97815 v 9.66945 h -3.031266 v -9.66945 z" />
            <path
               inkscape:connector-curvature="0"
               id="path4549-3"
               style="font-style:normal;font-variant:normal;font-weight:normal;font-stretch:normal;font-size:13.2330904px;line-height:1.25;font-family:Impact;-inkscape-font-specification:Impact;letter-spacing:0px;word-spacing:0px;fill:#ffffff;fill-opacity:1;stroke:none;stroke-width:0.11277154;stroke-miterlimit:4;stroke-dasharray:none;stroke-opacity:1"
               d="m 62.257175,154.97815 -0.116588,1.26789 q 0.641229,-1.36261 1.858108,-1.44276 v 3.40288 q -0.808823,0 -1.187732,0.21861 -0.378908,0.21859 -0.466349,0.61208 -0.08744,0.38619 -0.08744,1.79252 v 3.81823 h -2.943826 v -9.66945 z" />
            <path
               inkscape:connector-curvature="0"
               id="path86"
               style="font-style:normal;font-variant:normal;font-weight:normal;font-stretch:normal;font-size:14.74740791px;line-height:1.25;font-family:Impact;-inkscape-font-specification:Impact;letter-spacing:0px;word-spacing:0px;fill:#ffffff;fill-opacity:1;stroke:none;stroke-width:0.11277154;stroke-miterlimit:4;stroke-dasharray:none;stroke-opacity:1"
               d="M 70.813252,158.03392 H 68.247446 V 157.513 q 0,-0.6656 -0.07884,-0.83924 -0.07167,-0.18087 -0.372687,-0.18087 -0.24368,0 -0.36552,0.1664 -0.12184,0.15917 -0.12184,0.48474 0,0.44132 0.05734,0.65114 0.06451,0.20257 0.36552,0.44855 0.308184,0.24599 1.254236,0.71626 1.261401,0.6222 1.65559,1.17204 0.394187,0.54986 0.394187,1.59892 0,1.17204 -0.301016,1.77254 -0.301016,0.59326 -1.010554,0.91883 -0.702372,0.31833 -1.698593,0.31833 -1.103726,0 -1.892102,-0.34728 -0.78121,-0.34727 -1.075059,-0.94053 -0.29385,-0.59325 -0.29385,-1.79424 v -0.46304 h 2.565807 v 0.60774 q 0,0.77412 0.09317,1.00564 0.100339,0.23152 0.387021,0.23152 0.308184,0 0.430024,-0.15194 0.12184,-0.15916 0.12184,-0.65837 0,-0.68731 -0.157675,-0.86094 -0.164843,-0.17365 -1.684259,-1.02736 -1.275736,-0.72349 -1.555251,-1.30951 -0.279515,-0.59326 -0.279515,-1.40356 0,-1.15035 0.301016,-1.69297 0.301016,-0.54984 1.017722,-0.84647 0.723873,-0.29664 1.677091,-0.29664 0.946052,0 1.605421,0.24599 0.666536,0.23875 1.017722,0.63667 0.358353,0.39792 0.430023,0.73796 0.07884,0.34003 0.07884,1.06352 z" />
            <path
               sodipodi:nodetypes="ccccccccccc"
               inkscape:connector-curvature="0"
               id="path4573-3"
               style="font-style:normal;font-variant:normal;font-weight:normal;font-stretch:normal;font-size:17.77239418px;line-height:1.25;font-family:Impact;-inkscape-font-specification:Impact;letter-spacing:0px;word-spacing:0px;fill:#ffffff;fill-opacity:1;stroke:none;stroke-width:0.11277154;stroke-miterlimit:4;stroke-dasharray:none;stroke-opacity:1"
               d="m 47.664082,148.80529 h 14.493844 v 3.17073 H 51.784085 v 3.00438 h 2.54442 v 3.01416 h -2.54442 v 6.65464 h -4.120003 z" />
            <path
               inkscape:connector-curvature="0"
               id="path89"
               style="font-style:normal;font-variant:normal;font-weight:normal;font-stretch:normal;font-size:9.62953091px;line-height:1.25;font-family:Impact;-inkscape-font-specification:Impact;letter-spacing:0px;word-spacing:0px;fill:#ffffff;fill-opacity:1;stroke:none;stroke-width:0.11277154;stroke-miterlimit:4;stroke-dasharray:none;stroke-opacity:1"
               d="m 82.135671,145.82854 q 0,0.92566 -0.06993,1.3126 -0.0641,0.38316 -0.41959,0.70184 -0.349658,0.31866 -0.949903,0.48937 -0.600246,0.17072 -1.398632,0.17072 -0.757592,0 -1.363665,-0.15933 -0.600246,-0.16313 -0.967387,-0.4856 -0.367141,-0.32245 -0.437072,-0.70182 -0.06993,-0.37936 -0.06993,-1.32778 v -1.05084 q 0,-0.92566 0.0641,-1.30882 0.06993,-0.38695 0.419591,-0.70561 0.355485,-0.31868 0.95573,-0.48939 0.600246,-0.17072 1.398632,-0.17072 0.757591,0 1.357837,0.16313 0.606075,0.15934 0.973215,0.4818 0.367141,0.32246 0.437073,0.70182 0.06993,0.37937 0.06993,1.32779 z m -2.453432,-2.01822 q 0,-0.42869 -0.07575,-0.54629 -0.06993,-0.1214 -0.29721,-0.1214 -0.192312,0 -0.297209,0.0986 -0.09907,0.0948 -0.09907,0.56906 v 2.868 q 0,0.53491 0.0641,0.66009 0.06993,0.12519 0.314693,0.12519 0.250588,0 0.32052,-0.14415 0.06993,-0.14416 0.06993,-0.68666 z" />
            <path
               inkscape:connector-curvature="0"
               id="path91"
               style="font-style:normal;font-variant:normal;font-weight:normal;font-stretch:normal;font-size:9.62953091px;line-height:1.25;font-family:Impact;-inkscape-font-specification:Impact;letter-spacing:0px;word-spacing:0px;fill:#ffffff;fill-opacity:1;stroke:none;stroke-width:0.11277154;stroke-miterlimit:4;stroke-dasharray:none;stroke-opacity:1"
               d="m 83.056436,142.23215 h 4.1551 v 1.22915 h -1.701667 v 1.16465 h 1.515183 v 1.16845 h -1.515183 v 2.57968 h -2.453433 z" />
            <path
               inkscape:connector-curvature="0"
               id="path94"
               style="font-style:normal;font-variant:normal;font-weight:normal;font-stretch:condensed;font-size:16.74319649px;line-height:1.25;font-family:Impact;-inkscape-font-specification:'Impact, Condensed';font-variant-ligatures:normal;font-variant-caps:normal;font-variant-numeric:normal;font-feature-settings:normal;text-align:start;letter-spacing:0px;word-spacing:0px;writing-mode:lr-tb;text-anchor:start;fill:#ffffff;fill-opacity:1;stroke:none;stroke-width:0.11277154;stroke-miterlimit:4;stroke-dasharray:none;stroke-opacity:1"
               d="m 72.596783,129.41349 v 12.23953 h -3.253471 v -8.263 l -1.29962,8.263 h -2.307489 l -1.370347,-8.07401 v 8.07401 h -3.253471 v -12.23953 h 4.81832 q 0.212182,1.10375 0.450888,2.60062 l 0.512775,3.11469 0.848731,-5.71531 z" />
            <path
               inkscape:connector-curvature="0"
               id="path96"
               style="font-style:normal;font-variant:normal;font-weight:normal;font-stretch:condensed;font-size:16.74319649px;line-height:1.25;font-family:Impact;-inkscape-font-specification:'Impact, Condensed';font-variant-ligatures:normal;font-variant-caps:normal;font-variant-numeric:normal;font-feature-settings:normal;text-align:start;letter-spacing:0px;word-spacing:0px;writing-mode:lr-tb;text-anchor:start;fill:#ffffff;fill-opacity:1;stroke:none;stroke-width:0.11277154;stroke-miterlimit:4;stroke-dasharray:none;stroke-opacity:1"
               d="m 77.176396,135.5068 h -3.350721 v -0.67284 q 0,-1.16423 0.309433,-1.7917 0.318274,-0.63503 1.264257,-1.11887 0.945982,-0.48384 2.457785,-0.48384 1.812395,0 2.731854,0.55188 0.91946,0.54431 1.105119,1.34566 0.18566,0.7938 0.18566,3.28102 v 5.03491 h -3.474494 v -0.89208 q -0.327115,0.53677 -0.848732,0.80892 -0.512775,0.2646 -1.228892,0.2646 -0.937141,0 -1.723986,-0.44604 -0.778004,-0.45359 -0.778004,-1.97314 v -0.82403 q 0,-1.12644 0.415525,-1.53467 0.415524,-0.40824 2.059942,-0.95255 1.75935,-0.58968 1.883122,-0.79379 0.123774,-0.20412 0.123774,-0.83159 0,-0.78624 -0.141455,-1.02059 -0.132614,-0.24192 -0.450888,-0.24192 -0.36248,0 -0.450889,0.20411 -0.08841,0.19656 -0.08841,1.03572 z m 1.131642,1.3759 q -0.857572,0.53676 -0.999027,0.89963 -0.132615,0.36288 -0.132615,1.04327 0,0.77868 0.114932,1.00547 0.123774,0.2268 0.477412,0.2268 0.335956,0 0.433207,-0.17387 0.106097,-0.18144 0.106097,-0.93744 z" />
            <path
               inkscape:connector-curvature="0"
               id="path98"
               style="font-style:normal;font-variant:normal;font-weight:normal;font-stretch:condensed;font-size:16.74319649px;line-height:1.25;font-family:Impact;-inkscape-font-specification:'Impact, Condensed';font-variant-ligatures:normal;font-variant-caps:normal;font-variant-numeric:normal;font-feature-settings:normal;text-align:start;letter-spacing:0px;word-spacing:0px;writing-mode:lr-tb;text-anchor:start;fill:#ffffff;fill-opacity:1;stroke:none;stroke-width:0.11277154;stroke-miterlimit:4;stroke-dasharray:none;stroke-opacity:1"
               d="m 86.742309,131.62099 -0.06189,0.92232 q 0.389001,-0.55188 0.945982,-0.82404 0.565821,-0.27972 1.29962,-0.27972 0.919458,0 1.502962,0.37044 0.583503,0.37044 0.751481,0.93743 0.167977,0.55944 0.167977,1.87487 v 7.03073 h -3.571745 v -6.94757 q 0,-1.03572 -0.07957,-1.26251 -0.07957,-0.2268 -0.442048,-0.2268 -0.38016,0 -0.477411,0.26459 -0.09725,0.25704 -0.09725,1.39104 v 6.78125 h -3.571745 v -10.03203 z" />
            <path
               style="fill:#ffffff;fill-opacity:1;stroke:none;stroke-width:0.11277154;stroke-linecap:butt;stroke-linejoin:miter;stroke-miterlimit:4;stroke-dasharray:none;stroke-opacity:1"
               d="m 87.452798,148.22305 4.51951,-0.007 16.411352,-16.44432 h -4.38651 l -5.010302,4.94436 -2.85364,-4.94264 h -4.50316 l 4.36146,7.55427 0.13718,0.23761 z"
               id="path4640-2"
               inkscape:connector-curvature="0"
               sodipodi:nodetypes="cccccccccc" />
          </g>
          <g
             transform="translate(4.0343431,19.941866)"
             id="g5910">
            <path
               inkscape:connector-curvature="0"
               style="fill:#fdd835;fill-opacity:1;stroke:none;stroke-width:0.00370027;stroke-miterlimit:4;stroke-dasharray:none;stroke-opacity:1"
               d="m 628.24609,475.49023 c -6.33735,-6.53365 -12.57453,-13.16746 -18.92968,-19.68359 -31.48387,-32.28135 -63.18351,-64.34954 -95.07422,-96.24023 l -86.97461,86.97461 -24.03906,-23.95313 -130.74024,130.73242 h 367.44336 c -2e-4,-27.09316 -4.09882,-53.22727 -11.68555,-77.83008 z"
               id="path5906"
               transform="scale(0.26458333)" />
            <path
               style="fill:none;stroke:#ffffff;stroke-width:7;stroke-linecap:butt;stroke-linejoin:miter;stroke-miterlimit:4;stroke-dasharray:none;stroke-opacity:1"
               d="m 104.22005,114.27151 8.63286,8.61237 25.46615,-25.466147"
               id="path5492-9-7"
               inkscape:connector-curvature="0"
               sodipodi:nodetypes="ccc" />
          </g>
        </g>
      </g>
    </g>
  </g>
</svg>
