<?xml version="1.0" encoding="UTF-8" standalone="no"?>
<!-- Created with Inkscape (http://www.inkscape.org/) -->

<svg
   xmlns:dc="http://purl.org/dc/elements/1.1/"
   xmlns:cc="http://creativecommons.org/ns#"
   xmlns:rdf="http://www.w3.org/1999/02/22-rdf-syntax-ns#"
   xmlns:svg="http://www.w3.org/2000/svg"
   xmlns="http://www.w3.org/2000/svg"
   xmlns:sodipodi="http://sodipodi.sourceforge.net/DTD/sodipodi-0.dtd"
   xmlns:inkscape="http://www.inkscape.org/namespaces/inkscape"
   width="139.56822mm"
   height="69.790573mm"
   viewBox="0 0 139.56822 69.790573"
   version="1.1"
   id="svg5960"
   inkscape:version="0.92.4 (5da689c313, 2019-01-14)"
   sodipodi:docname="logo_semi_circle.svg">
  <defs
     id="defs5954" />
  <sodipodi:namedview
     id="base"
     pagecolor="#ffffff"
     bordercolor="#666666"
     borderopacity="1.0"
     inkscape:pageopacity="0.0"
     inkscape:pageshadow="2"
     inkscape:zoom="0.7"
     inkscape:cx="109.05633"
     inkscape:cy="-294.47889"
     inkscape:document-units="mm"
     inkscape:current-layer="layer1"
     showgrid="false"
     inkscape:window-width="1920"
     inkscape:window-height="1017"
     inkscape:window-x="1272"
     inkscape:window-y="-8"
     inkscape:window-maximized="1"
     fit-margin-top="0"
     fit-margin-left="0"
     fit-margin-right="0"
     fit-margin-bottom="0" />
  <metadata
     id="metadata5957">
    <rdf:RDF>
      <cc:Work
         rdf:about="">
        <dc:format>image/svg+xml</dc:format>
        <dc:type
           rdf:resource="http://purl.org/dc/dcmitype/StillImage" />
        <dc:title></dc:title>
      </cc:Work>
    </rdf:RDF>
  </metadata>
  <g
     inkscape:label="Layer 1"
     inkscape:groupmode="layer"
     id="layer1"
     transform="translate(-34.915293,-5.4588807)">
    <g
       id="g155">
      <path
         id="path5874"
         d="m 104.69966,5.4588807 c -38.540676,0 -69.784367,31.2464713 -69.784367,69.7905713 H 174.48352 c 0,-1.75e-4 0,-2.65e-4 0,-5.29e-4 H 77.264128 l 34.591692,-34.589619 6.36033,6.337598 23.01203,-23.012031 c 8.43775,8.437744 16.82495,16.922453 25.15506,25.46356 1.68146,1.724059 3.33172,3.479255 5.00847,5.20795 C 162.60584,26.16491 136.0724,5.4588781 104.69966,5.4588807 Z"
         style="fill:#4fc2f7;fill-opacity:1;stroke:none;stroke-width:0.00097903;stroke-miterlimit:4;stroke-dasharray:none;stroke-opacity:1"
         inkscape:connector-curvature="0" />
      <g
         id="g134">
        <g
           id="g115">
          <path
             d="m 92.55779,57.716143 -3.161569,3.16641 H 77.453497 V 73.54861 l -4.244932,-0.0011 V 60.884787 h -6.478581 v -3.173003 z"
             style="font-style:normal;font-variant:normal;font-weight:normal;font-stretch:normal;font-size:17.79476166px;line-height:1.25;font-family:Impact;-inkscape-font-specification:Impact;letter-spacing:0px;word-spacing:0px;fill:#ffffff;fill-opacity:1;stroke:none;stroke-width:0.11277154;stroke-miterlimit:4;stroke-dasharray:none;stroke-opacity:1"
             id="path4532-5"
             inkscape:connector-curvature="0"
             sodipodi:nodetypes="ccccccccc" />
          <path
             d="m 59.397992,63.885892 v 9.669449 h -3.031266 v -9.669449 z"
             style="font-style:normal;font-variant:normal;font-weight:normal;font-stretch:normal;font-size:13.2330904px;line-height:1.25;font-family:Impact;-inkscape-font-specification:Impact;letter-spacing:0px;word-spacing:0px;fill:#ffffff;fill-opacity:1;stroke:none;stroke-width:0.11277154;stroke-miterlimit:4;stroke-dasharray:none;stroke-opacity:1"
             id="path4547-4"
             inkscape:connector-curvature="0"
             sodipodi:nodetypes="ccccc" />
          <path
             d="m 63.391104,63.885892 -0.116588,1.26789 q 0.641229,-1.362619 1.858108,-1.442765 v 3.402881 q -0.808823,0 -1.187732,0.218608 -0.378908,0.218596 -0.466349,0.612078 -0.08744,0.386198 -0.08744,1.792527 v 3.81823 h -2.943826 v -9.669449 z"
             style="font-style:normal;font-variant:normal;font-weight:normal;font-stretch:normal;font-size:13.2330904px;line-height:1.25;font-family:Impact;-inkscape-font-specification:Impact;letter-spacing:0px;word-spacing:0px;fill:#ffffff;fill-opacity:1;stroke:none;stroke-width:0.11277154;stroke-miterlimit:4;stroke-dasharray:none;stroke-opacity:1"
             id="path4549-3"
             inkscape:connector-curvature="0" />
          <g
             id="text4545-4"
             style="font-style:normal;font-variant:normal;font-weight:normal;font-stretch:normal;font-size:14.74740791px;line-height:1.25;font-family:'AR DARLING';-inkscape-font-specification:'AR DARLING';letter-spacing:0px;word-spacing:0px;fill:#ffffff;fill-opacity:1;stroke:none;stroke-width:0.11277154;stroke-miterlimit:4;stroke-dasharray:none;stroke-opacity:1"
             transform="scale(0.99530246,1.0047197)"
             aria-label="s">
            <path
               id="path86"
               style="font-style:normal;font-variant:normal;font-weight:normal;font-stretch:normal;font-family:Impact;-inkscape-font-specification:Impact;fill:#ffffff;fill-opacity:1;stroke:none;stroke-width:0.11277154;stroke-miterlimit:4;stroke-dasharray:none;stroke-opacity:1"
               d="m 72.286752,66.627188 h -2.577916 v -0.518463 q 0,-0.662482 -0.07921,-0.835303 -0.07201,-0.180022 -0.374446,-0.180022 -0.24483,0 -0.367245,0.16562 -0.122415,0.15842 -0.122415,0.48246 0,0.439253 0.05761,0.648079 0.06481,0.201625 0.367245,0.446455 0.309638,0.24483 1.260154,0.712887 1.267356,0.619276 1.663404,1.166543 0.396049,0.547267 0.396049,1.591395 0,1.166543 -0.302437,1.764216 -0.302438,0.590473 -1.015325,0.914513 -0.705686,0.316838 -1.706609,0.316838 -1.108936,0 -1.901033,-0.345642 -0.784896,-0.345642 -1.080133,-0.936115 -0.295236,-0.590472 -0.295236,-1.785819 v -0.460856 h 2.577916 v 0.604874 q 0,0.770495 0.09361,1.000923 0.100812,0.230428 0.388847,0.230428 0.309638,0 0.432053,-0.151219 0.122415,-0.158419 0.122415,-0.65528 0,-0.684084 -0.158419,-0.856905 -0.16562,-0.172821 -1.692208,-1.022525 -1.281757,-0.720089 -1.562591,-1.30336 -0.280834,-0.590472 -0.280834,-1.396971 0,-1.144941 0.302437,-1.685007 0.302437,-0.547267 1.022525,-0.842503 0.727289,-0.295236 1.685006,-0.295236 0.950517,0 1.612998,0.24483 0.669682,0.237629 1.022526,0.633677 0.360044,0.396049 0.432053,0.73449 0.07921,0.338442 0.07921,1.05853 z"
               inkscape:connector-curvature="0" />
          </g>
          <path
             d="m 48.798011,57.713028 h 14.493844 v 3.17073 H 52.918014 v 3.004381 h 2.54442 v 3.014157 h -2.54442 v 6.654638 h -4.120003 z"
             style="font-style:normal;font-variant:normal;font-weight:normal;font-stretch:normal;font-size:17.77239418px;line-height:1.25;font-family:Impact;-inkscape-font-specification:Impact;letter-spacing:0px;word-spacing:0px;fill:#ffffff;fill-opacity:1;stroke:none;stroke-width:0.11277154;stroke-miterlimit:4;stroke-dasharray:none;stroke-opacity:1"
             id="path4573-3"
             inkscape:connector-curvature="0"
             sodipodi:nodetypes="ccccccccccc" />
          <g
             id="text4586-9"
             style="font-style:normal;font-variant:normal;font-weight:normal;font-stretch:normal;font-size:9.62953091px;line-height:1.25;font-family:'AR DARLING';-inkscape-font-specification:'AR DARLING';letter-spacing:0px;word-spacing:0px;fill:#ffffff;fill-opacity:1;stroke:none;stroke-width:0.11277154;stroke-miterlimit:4;stroke-dasharray:none;stroke-opacity:1"
             transform="scale(1.2394152,0.80683213)"
             aria-label="OF">
            <path
               id="path89"
               style="font-style:normal;font-variant:normal;font-weight:normal;font-stretch:normal;font-family:Impact;-inkscape-font-specification:Impact;fill:#ffffff;fill-opacity:1;stroke:none;stroke-width:0.11277154;stroke-miterlimit:4;stroke-dasharray:none;stroke-opacity:1"
               d="m 67.184588,67.840976 q 0,1.147268 -0.05642,1.626864 -0.05172,0.474894 -0.338538,0.869855 -0.282115,0.394962 -0.766413,0.606548 -0.484298,0.211586 -1.128461,0.211586 -0.611249,0 -1.100249,-0.19748 -0.484298,-0.202183 -0.780519,-0.601846 -0.29622,-0.399663 -0.352643,-0.869855 -0.05642,-0.470192 -0.05642,-1.645672 v -1.302432 q 0,-1.147268 0.05172,-1.622162 0.05642,-0.479595 0.338538,-0.874557 0.286817,-0.394961 0.771115,-0.606547 0.484297,-0.211587 1.12846,-0.211587 0.61125,0 1.095547,0.202183 0.489,0.19748 0.785221,0.597144 0.296221,0.399663 0.352644,0.869855 0.05642,0.470192 0.05642,1.645671 z M 65.20508,65.339555 q 0,-0.531317 -0.06112,-0.677076 -0.05642,-0.150462 -0.239798,-0.150462 -0.155163,0 -0.239798,0.12225 -0.07993,0.117548 -0.07993,0.705288 v 3.554651 q 0,0.662971 0.05172,0.818134 0.05642,0.155163 0.253903,0.155163 0.202183,0 0.258606,-0.178673 0.05642,-0.178672 0.05642,-0.851047 z"
               inkscape:connector-curvature="0" />
            <path
               id="path91"
               style="font-style:normal;font-variant:normal;font-weight:normal;font-stretch:normal;font-family:Impact;-inkscape-font-specification:Impact;fill:#ffffff;fill-opacity:1;stroke:none;stroke-width:0.11277154;stroke-miterlimit:4;stroke-dasharray:none;stroke-opacity:1"
               d="m 67.927491,63.383557 h 3.352469 v 1.523421 h -1.372961 v 1.44349 h 1.222499 v 1.448191 h -1.222499 v 3.197305 h -1.979508 z"
               inkscape:connector-curvature="0" />
          </g>
          <g
             id="text4590-8"
             style="font-style:normal;font-variant:normal;font-weight:normal;font-stretch:normal;font-size:9.95794106px;line-height:1.25;font-family:'AR DARLING';-inkscape-font-specification:'AR DARLING';letter-spacing:0px;word-spacing:0px;fill:#ffffff;fill-opacity:1;stroke:none;stroke-width:0.11277154;stroke-miterlimit:4;stroke-dasharray:none;stroke-opacity:1"
             transform="scale(1.0814107,0.92471806)"
             aria-label="Man">
            <path
               id="path94"
               style="font-style:normal;font-variant:normal;font-weight:normal;font-stretch:condensed;font-size:16.74319649px;font-family:Impact;-inkscape-font-specification:'Impact, Condensed';font-variant-ligatures:normal;font-variant-caps:normal;font-variant-numeric:normal;font-feature-settings:normal;text-align:start;writing-mode:lr-tb;text-anchor:start;fill:#ffffff;fill-opacity:1;stroke:none;stroke-width:0.11277154;stroke-miterlimit:4;stroke-dasharray:none;stroke-opacity:1"
               d="m 68.180121,41.440986 v 13.235955 h -3.008543 v -8.9357 l -1.201782,8.9357 h -2.133777 l -1.267185,-8.731315 v 8.731315 H 57.560291 V 41.440986 h 4.455587 q 0.196209,1.193607 0.416945,2.812334 l 0.474172,3.36826 0.784837,-6.180594 z"
               inkscape:connector-curvature="0" />
            <path
               id="path96"
               style="font-style:normal;font-variant:normal;font-weight:normal;font-stretch:condensed;font-size:16.74319649px;font-family:Impact;-inkscape-font-specification:'Impact, Condensed';font-variant-ligatures:normal;font-variant-caps:normal;font-variant-numeric:normal;font-feature-settings:normal;text-align:start;writing-mode:lr-tb;text-anchor:start;fill:#ffffff;fill-opacity:1;stroke:none;stroke-width:0.11277154;stroke-miterlimit:4;stroke-dasharray:none;stroke-opacity:1"
               d="M 72.414972,48.03035 H 69.3165 v -0.72761 q 0,-1.25901 0.286138,-1.937567 0.294314,-0.686733 1.169081,-1.209958 0.874766,-0.523224 2.272758,-0.523224 1.675955,0 2.526195,0.596803 0.850241,0.588628 1.021924,1.455219 0.171683,0.858416 0.171683,3.548119 v 5.444809 h -3.212928 v -0.964696 q -0.302489,0.580453 -0.784837,0.874767 -0.474173,0.286138 -1.136379,0.286138 -0.866592,0 -1.594201,-0.482348 Q 69.3165,53.900279 69.3165,52.257026 v -0.891118 q 0,-1.218133 0.384243,-1.659604 0.384243,-0.441471 1.904866,-1.030099 1.626902,-0.63768 1.741357,-0.858415 0.114456,-0.220736 0.114456,-0.899293 0,-0.850241 -0.130806,-1.103678 -0.122631,-0.261612 -0.416945,-0.261612 -0.335191,0 -0.416945,0.220735 -0.08175,0.212561 -0.08175,1.120029 z m 1.04645,1.487921 q -0.793013,0.580452 -0.923819,0.972871 -0.122631,0.392418 -0.122631,1.128203 0,0.842066 0.10628,1.087327 0.114456,0.245262 0.441471,0.245262 0.310665,0 0.400594,-0.188034 0.09811,-0.196209 0.09811,-1.013748 z"
               inkscape:connector-curvature="0" />
            <path
               id="path98"
               style="font-style:normal;font-variant:normal;font-weight:normal;font-stretch:condensed;font-size:16.74319649px;font-family:Impact;-inkscape-font-specification:'Impact, Condensed';font-variant-ligatures:normal;font-variant-caps:normal;font-variant-numeric:normal;font-feature-settings:normal;text-align:start;writing-mode:lr-tb;text-anchor:start;fill:#ffffff;fill-opacity:1;stroke:none;stroke-width:0.11277154;stroke-miterlimit:4;stroke-dasharray:none;stroke-opacity:1"
               d="m 81.260744,43.8282 -0.05723,0.997397 q 0.359717,-0.596803 0.874767,-0.891117 0.523224,-0.302489 1.201782,-0.302489 0.85024,0 1.389816,0.400594 0.539575,0.400594 0.694908,1.013748 0.155332,0.604979 0.155332,2.027496 v 7.603112 h -3.302857 v -7.513182 q 0,-1.120029 -0.07358,-1.36529 -0.07358,-0.245262 -0.40877,-0.245262 -0.351542,0 -0.441471,0.286139 -0.08993,0.277963 -0.08993,1.504271 v 7.333324 H 77.900659 V 43.8282 Z"
               inkscape:connector-curvature="0" />
          </g>
          <path
             sodipodi:nodetypes="cccccccccc"
             inkscape:connector-curvature="0"
             id="path4640-2"
             d="m 88.586727,57.130785 4.51951,-0.007 16.411353,-16.444315 h -4.38651 l -5.0103,4.944356 -2.853643,-4.942641 h -4.50316 l 4.36146,7.55427 0.13718,0.23761 z"
             style="fill:#ffffff;fill-opacity:1;stroke:none;stroke-width:0.11277154;stroke-linecap:butt;stroke-linejoin:miter;stroke-miterlimit:4;stroke-dasharray:none;stroke-opacity:1" />
        </g>
        <path
           inkscape:connector-curvature="0"
           style="fill:#fdd835;fill-opacity:1;stroke:none;stroke-width:0.00097903;stroke-miterlimit:4;stroke-dasharray:none;stroke-opacity:1"
           d="m 171.39171,54.656391 c -1.67675,-1.728694 -3.32701,-3.48389 -5.00847,-5.207949 -8.33011,-8.541107 -16.71731,-17.025816 -25.15506,-25.463561 l -23.01203,23.012032 -6.36033,-6.337599 -34.591692,34.589619 h 97.219392 c -6e-5,-7.168398 -1.08448,-14.083048 -3.09181,-20.592542 z"
           id="path5906" />
        <path
           style="fill:none;stroke:#ffffff;stroke-width:7;stroke-linecap:butt;stroke-linejoin:miter;stroke-miterlimit:4;stroke-dasharray:none;stroke-opacity:1"
           d="m 109.38832,43.121113 8.63286,8.61237 25.46615,-25.466147"
           id="path5492-9-7"
           inkscape:connector-curvature="0"
           sodipodi:nodetypes="ccc" />
      </g>
    </g>
  </g>
</svg>
