<?xml version="1.0" encoding="UTF-8" standalone="no"?>
<!-- Created with Inkscape (http://www.inkscape.org/) -->

<svg
   xmlns:dc="http://purl.org/dc/elements/1.1/"
   xmlns:cc="http://creativecommons.org/ns#"
   xmlns:rdf="http://www.w3.org/1999/02/22-rdf-syntax-ns#"
   xmlns:svg="http://www.w3.org/2000/svg"
   xmlns="http://www.w3.org/2000/svg"
   xmlns:sodipodi="http://sodipodi.sourceforge.net/DTD/sodipodi-0.dtd"
   xmlns:inkscape="http://www.inkscape.org/namespaces/inkscape"
   width="191.19894mm"
   height="191.19894mm"
   viewBox="0 0 191.19894 191.19894"
   version="1.1"
   id="svg1021"
   inkscape:version="0.92.4 (5da689c313, 2019-01-14)"
   sodipodi:docname="logo_circle_text.svg">
  <defs
     id="defs1015" />
  <sodipodi:namedview
     id="base"
     pagecolor="#ffffff"
     bordercolor="#666666"
     borderopacity="1.0"
     inkscape:pageopacity="0.0"
     inkscape:pageshadow="2"
     inkscape:zoom="0.35"
     inkscape:cx="-57.250592"
     inkscape:cy="299.89227"
     inkscape:document-units="mm"
     inkscape:current-layer="layer1"
     showgrid="false"
     inkscape:window-width="1920"
     inkscape:window-height="1017"
     inkscape:window-x="1272"
     inkscape:window-y="-8"
     inkscape:window-maximized="1"
     fit-margin-top="0"
     fit-margin-left="0"
     fit-margin-right="0"
     fit-margin-bottom="0" />
  <metadata
     id="metadata1018">
    <rdf:RDF>
      <cc:Work
         rdf:about="">
        <dc:format>image/svg+xml</dc:format>
        <dc:type
           rdf:resource="http://purl.org/dc/dcmitype/StillImage" />
        <dc:title></dc:title>
      </cc:Work>
    </rdf:RDF>
  </metadata>
  <g
     inkscape:label="Layer 1"
     inkscape:groupmode="layer"
     id="layer1"
     transform="translate(-7.5880285,-36.980883)">
    <g
       id="g60">
      <path
         id="path5488"
         d="M 103.18716,36.980883 A 95.599469,95.599469 0 0 0 7.5880285,132.58125 95.599469,95.599469 0 0 0 18.187394,176.29164 l 67.434927,-67.43496 15.169809,15.1698 54.94766,-54.947653 40.03574,40.035733 A 95.599469,95.599469 0 0 0 103.18716,36.980883 Z"
         style="fill:#4fc2f7;fill-opacity:1;stroke:none;stroke-width:16.71445847;stroke-miterlimit:4;stroke-dasharray:none;stroke-opacity:1"
         inkscape:connector-curvature="0" />
      <g
         id="g46">
        <path
           inkscape:connector-curvature="0"
           style="fill:#fdd835;fill-opacity:1;stroke:none;stroke-width:16.71445847;stroke-miterlimit:4;stroke-dasharray:none;stroke-opacity:1"
           d="m 191.38468,169.24537 h -30.13971 v 39.13623 a 95.599468,95.599468 0 0 0 30.13971,-39.13623 z"
           id="path5660" />
        <path
           inkscape:connector-curvature="0"
           style="fill:#fdd835;fill-opacity:1;stroke:none;stroke-width:16.71445847;stroke-miterlimit:4;stroke-dasharray:none;stroke-opacity:1"
           d="m 155.73922,69.078271 -54.94766,54.947659 -15.169805,-15.1698 -67.434926,67.43493 a 95.599468,95.599468 0 0 0 28.06303,32.9222 v -52.68713 h 58.164481 v 12.72542 H 62.784375 v 12.05662 h 10.210683 v 12.09611 H 62.784375 v 25.68157 a 95.599468,95.599468 0 0 0 40.402215,9.09398 95.599468,95.599468 0 0 0 41.02412,-9.38026 V 169.25402 H 118.21203 V 156.5212 l 77.45436,0.0136 a 95.599468,95.599468 0 0 0 3.12058,-23.95407 95.599468,95.599468 0 0 0 -3.012,-23.46668 z"
           id="path5497" />
        <path
           style="fill:none;stroke:#ffffff;stroke-width:16.71445847;stroke-linecap:butt;stroke-linejoin:miter;stroke-miterlimit:4;stroke-dasharray:none;stroke-opacity:1"
           d="m 79.739978,114.72926 20.603002,20.57048 60.80755,-60.807554"
           id="path5492"
           inkscape:connector-curvature="0"
           sodipodi:nodetypes="ccc" />
      </g>
      <g
         id="g41">
        <path
           inkscape:connector-curvature="0"
           style="fill:#ffffea;fill-opacity:1;stroke:none;stroke-width:16.71445847;stroke-miterlimit:4;stroke-dasharray:none;stroke-opacity:1"
           d="M 62.784375,219.08585 V 193.40428 H 72.995058 V 181.30817 H 62.784375 V 169.25155 H 104.41434 V 156.52613 H 46.249859 v 52.68713 a 95.599468,95.599468 0 0 0 16.534516,9.87259 z"
           id="path5655" />
        <path
           inkscape:connector-curvature="0"
           style="fill:#fffff5;fill-opacity:1;stroke:none;stroke-width:16.71445847;stroke-miterlimit:4;stroke-dasharray:none;stroke-opacity:1"
           d="m 195.66639,156.53477 -77.45436,-0.0136 V 169.254 h 25.99868 v 49.54556 a 95.599468,95.599468 0 0 0 17.03426,-10.41798 v -39.13622 h 30.13971 a 95.599468,95.599468 0 0 0 4.28171,-12.7106 z"
           id="path5658" />
        <path
           sodipodi:nodetypes="ccccc"
           inkscape:connector-curvature="0"
           id="path4547-4-0-7-4-4-6"
           style="font-style:normal;font-variant:normal;font-weight:normal;font-stretch:normal;font-size:13.2330904px;line-height:1.25;font-family:Impact;-inkscape-font-specification:Impact;letter-spacing:0px;word-spacing:0px;fill:#fffffc;fill-opacity:1;stroke:none;stroke-width:0.45255503;stroke-miterlimit:4;stroke-dasharray:none;stroke-opacity:1"
           d="m 88.788194,181.29882 v 38.80375 H 76.623646 v -38.80375 z" />
        <path
           inkscape:connector-curvature="0"
           id="path4549-3-3-7-6-7-7"
           style="font-style:normal;font-variant:normal;font-weight:normal;font-stretch:normal;font-size:13.2330904px;line-height:1.25;font-family:Impact;-inkscape-font-specification:Impact;letter-spacing:0px;word-spacing:0px;fill:#fffffc;fill-opacity:1;stroke:none;stroke-width:0.45255503;stroke-miterlimit:4;stroke-dasharray:none;stroke-opacity:1"
           d="m 104.81265,181.29882 -0.46787,5.08808 q 2.57327,-5.46822 7.45664,-5.78985 v 13.65584 q -3.24583,0 -4.7664,0.87728 -1.52057,0.87723 -1.87147,2.45629 -0.35091,1.54982 -0.35091,7.19345 v 15.32266 H 92.998987 v -38.80375 z" />
        <g
           aria-label="s"
           transform="scale(0.99530249,1.0047197)"
           style="font-style:normal;font-variant:normal;font-weight:normal;font-stretch:normal;font-size:59.18172073px;line-height:1.25;font-family:'AR DARLING';-inkscape-font-specification:'AR DARLING';letter-spacing:0px;word-spacing:0px;fill:#fffffc;fill-opacity:1;stroke:none;stroke-width:0.45255506;stroke-miterlimit:4;stroke-dasharray:none;stroke-opacity:1"
           id="text4545-4-3-5-0-9-1">
          <path
             d="m 139.80513,192.65239 h -10.34524 v -2.08061 q 0,-2.65855 -0.31787,-3.35209 -0.28897,-0.72243 -1.50266,-0.72243 -0.98251,0 -1.47377,0.66464 -0.49125,0.63574 -0.49125,1.93612 0,1.76274 0.23118,2.60076 0.26007,0.80912 1.47376,1.79163 1.24259,0.98251 5.05703,2.86084 5.08593,2.48517 6.67529,4.68136 1.58935,2.1962 1.58935,6.38631 0,4.68137 -1.21369,7.07985 -1.21369,2.36958 -4.07452,3.66996 -2.83194,1.27148 -6.84867,1.27148 -4.45019,0 -7.62889,-1.38707 -3.14981,-1.38707 -4.3346,-3.75665 -1.18479,-2.36959 -1.18479,-7.16654 v -1.84943 h 10.34524 v 2.42738 q 0,3.09201 0.37567,4.01672 0.40456,0.92472 1.56045,0.92472 1.24259,0 1.73384,-0.60685 0.49126,-0.63574 0.49126,-2.62965 0,-2.74525 -0.63574,-3.43878 -0.66464,-0.69354 -6.79088,-4.10342 -5.14372,-2.88974 -6.27072,-5.23042 -1.12699,-2.36958 -1.12699,-5.60608 0,-4.59468 1.21369,-6.76197 1.21368,-2.1962 4.10342,-3.38099 2.91863,-1.18479 6.76197,-1.18479 3.81445,0 6.473,0.98251 2.68745,0.95361 4.10342,2.54296 1.44487,1.58935 1.73384,2.94753 0.31787,1.35817 0.31787,4.24791 z"
             style="font-style:normal;font-variant:normal;font-weight:normal;font-stretch:normal;font-family:Impact;-inkscape-font-specification:Impact;fill:#fffffc;fill-opacity:1;stroke:none;stroke-width:0.45255506;stroke-miterlimit:4;stroke-dasharray:none;stroke-opacity:1"
             id="path32"
             inkscape:connector-curvature="0" />
        </g>
      </g>
    </g>
  </g>
</svg>
